<svg width="39" height="30" viewBox="0 0 39 30" fill="none" xmlns="http://www.w3.org/2000/svg">
<path d="M13.0623 24.571C14.3567 24.571 15.4059 23.5217 15.4059 22.2274C15.4059 20.933 14.3567 19.8838 13.0623 19.8838C11.768 19.8838 10.7188 20.933 10.7188 22.2274C10.7188 23.5217 11.768 24.571 13.0623 24.571Z" fill="#1B344B"/>
<path d="M5.95687 2C3.48605 5.49121 2 9.94937 2 14.807C2 19.6647 3.48605 24.1229 5.95687 27.6141" stroke="#1B344B" stroke-width="3" stroke-miterlimit="10" stroke-linecap="round"/>
<path d="M33.043 2C35.5163 5.49121 36.9998 9.94937 36.9998 14.807C36.9998 19.6647 35.5138 24.1229 33.043 27.6141" stroke="#1B344B" stroke-width="3" stroke-miterlimit="10" stroke-linecap="round"/>
<path d="M24.2676 5.05371V15.9065" stroke="#1B344B" stroke-width="3" stroke-miterlimit="10" stroke-linecap="round"/>
<path d="M24.2676 5.05371V15.9065" stroke="#1B344B" stroke-width="3" stroke-miterlimit="10" stroke-linecap="round"/>
<path d="M20.4297 6.64355L28.1042 14.3181" stroke="#1B344B" stroke-width="3" stroke-miterlimit="10" stroke-linecap="round"/>
<path d="M18.8438 10.481H29.6965" stroke="#1B344B" stroke-width="3" stroke-miterlimit="10" stroke-linecap="round"/>
<path d="M20.4297 14.3181L28.1042 6.64355" stroke="#1B344B" stroke-width="3" stroke-miterlimit="10" stroke-linecap="round"/>
</svg>
