<svg width="48" height="48" viewBox="0 0 48 48" fill="none" xmlns="http://www.w3.org/2000/svg">
<path d="M16.0247 36.6139C17.6656 36.6139 18.9958 35.2838 18.9958 33.6429C18.9958 32.0021 17.6656 30.6719 16.0247 30.6719C14.3839 30.6719 13.0537 32.0021 13.0537 33.6429C13.0537 35.2838 14.3839 36.6139 16.0247 36.6139Z" fill="#1B344B"/>
<path fill-rule="evenodd" clip-rule="evenodd" d="M7.88277 6.77573C8.55898 7.25431 8.7192 8.19044 8.24063 8.86665C5.2907 13.0348 3.5 18.3828 3.5 24.236C3.5 30.0892 5.2907 35.4371 8.24063 39.6053C8.7192 40.2815 8.55898 41.2176 7.88277 41.6962C7.20656 42.1748 6.27043 42.0146 5.79185 41.3384C2.47713 36.6547 0.5 30.6992 0.5 24.236C0.5 17.7728 2.47713 11.8172 5.79185 7.13359C6.27043 6.45738 7.20656 6.29716 7.88277 6.77573Z" fill="#1B344B"/>
<path fill-rule="evenodd" clip-rule="evenodd" d="M40.133 6.77615C40.809 6.29726 41.7452 6.45702 42.2241 7.133C45.5428 11.8174 47.5164 17.7733 47.5164 24.236C47.5164 30.6992 45.5392 36.6547 42.2245 41.3384C41.7459 42.0146 40.8098 42.1748 40.1336 41.6962C39.4574 41.2176 39.2972 40.2815 39.7757 39.6053C42.7257 35.4371 44.5164 30.0892 44.5164 24.236C44.5164 18.3822 42.7286 13.0347 39.7762 8.86725C39.2973 8.19127 39.457 7.25506 40.133 6.77615Z" fill="#1B344B"/>
<path fill-rule="evenodd" clip-rule="evenodd" d="M30.2305 10.3701C31.0589 10.3701 31.7305 11.0417 31.7305 11.8701V25.6285C31.7305 26.4569 31.0589 27.1285 30.2305 27.1285C29.402 27.1285 28.7305 26.4569 28.7305 25.6285V11.8701C28.7305 11.0417 29.402 10.3701 30.2305 10.3701Z" fill="#1B344B"/>
<path fill-rule="evenodd" clip-rule="evenodd" d="M30.2305 10.3701C31.0589 10.3701 31.7305 11.0417 31.7305 11.8701V25.6285C31.7305 26.4569 31.0589 27.1285 30.2305 27.1285C29.402 27.1285 28.7305 26.4569 28.7305 25.6285V11.8701C28.7305 11.0417 29.402 10.3701 30.2305 10.3701Z" fill="#1B344B"/>
<path fill-rule="evenodd" clip-rule="evenodd" d="M24.3026 12.8261C24.8884 12.2403 25.8382 12.2403 26.4239 12.8261L36.1532 22.5553C36.739 23.1411 36.739 24.0908 36.1532 24.6766C35.5674 25.2624 34.6177 25.2624 34.0319 24.6766L24.3026 14.9474C23.7168 14.3616 23.7168 13.4118 24.3026 12.8261Z" fill="#1B344B"/>
<path fill-rule="evenodd" clip-rule="evenodd" d="M21.8525 18.751C21.8525 17.9225 22.5241 17.251 23.3525 17.251H37.1109C37.9393 17.251 38.6109 17.9225 38.6109 18.751C38.6109 19.5794 37.9393 20.251 37.1109 20.251H23.3525C22.5241 20.251 21.8525 19.5794 21.8525 18.751Z" fill="#1B344B"/>
<path fill-rule="evenodd" clip-rule="evenodd" d="M36.1532 12.8261C36.739 13.4118 36.739 14.3616 36.1532 14.9474L26.4239 24.6766C25.8382 25.2624 24.8884 25.2624 24.3026 24.6766C23.7168 24.0908 23.7168 23.1411 24.3026 22.5553L34.0319 12.8261C34.6177 12.2403 35.5674 12.2403 36.1532 12.8261Z" fill="#1B344B"/>
</svg>
